<svg xmlns="http://www.w3.org/2000/svg" xmlns:xlink="http://www.w3.org/1999/xlink" version="1.1" id="Layer_1" x="0px" y="0px" width="100%" viewBox="0 0 1024 672" enable-background="new 0 0 1024 672" xml:space="preserve">
<path fill="#5a9ea0" opacity="1.000000" stroke="none" d=" M620.531738,71.485291   C639.078308,94.436325 650.703369,120.088348 654.330933,149.076782   C658.844055,185.142365 651.162292,218.665314 633.903198,250.613174   C616.755005,282.355896 595.045471,310.717590 572.341614,338.463318   C556.512085,357.808136 540.141724,376.689026 522.983276,394.870605   C520.132935,397.890900 520.302673,399.825470 523.603149,402.474792   C528.713013,406.576447 534.199158,406.873444 540.097595,405.381592   C544.152344,404.356049 548.020325,402.809052 551.518738,400.458557   C565.486755,391.073761 579.415405,381.629822 593.443604,372.335938   C596.311096,370.436127 597.700867,368.381134 597.894897,364.714691   C598.598633,351.418213 606.174744,341.685608 617.517273,338.680969   C630.024292,335.367889 642.586365,340.022491 649.759705,351.010712   C651.542419,353.741547 653.439819,355.078705 656.625671,354.760376   C657.945496,354.628479 659.300415,354.636841 660.621643,354.764709   C668.504700,355.527588 674.843140,354.620453 679.970825,346.710205   C685.204163,338.636932 694.639709,336.765900 704.103271,337.760742   C708.082886,338.179077 710.109558,336.646759 711.862122,333.240173   C720.855347,315.759155 729.935913,298.319977 739.277283,281.023529   C741.364746,277.158386 739.712341,274.389160 738.293152,271.232361   C731.230957,255.524246 736.497314,237.703583 751.040588,229.548355   C762.965454,222.861450 775.113464,223.164001 786.422302,230.958557   C797.623291,238.678833 802.394348,249.929550 799.852905,263.164551   C797.294189,276.489594 788.893250,285.349762 775.429626,288.754333   C770.857178,289.910614 766.111755,289.889130 761.524231,289.089996   C758.546997,288.571350 756.938660,289.208008 755.549805,291.864105   C745.670593,310.757568 735.726624,329.617584 725.676575,348.420593   C724.419495,350.772583 725.391174,352.469086 726.128174,354.497925   C730.622437,366.870850 727.944519,378.860870 719.069763,386.523560   C710.279785,394.113098 697.212402,395.549530 686.777344,390.103241   C681.389893,387.291412 677.617310,382.917938 674.960999,377.594055   C673.756714,375.180450 672.199951,373.960999 669.500916,374.297577   C669.008606,374.359009 668.497620,374.348602 668.002686,374.298431   C659.262451,373.412781 652.537231,374.650848 646.699585,383.317963   C638.891479,394.910645 623.364197,396.570038 610.789062,389.332245   C607.614197,387.504852 605.419312,387.404358 602.318909,389.538422   C589.283447,398.511200 576.018921,407.150391 562.885925,415.982605   C558.584106,418.875641 554.071777,421.341827 549.395508,423.558105   C536.198181,429.812866 523.820251,427.884277 512.116455,419.804291   C507.157654,416.380890 502.898438,412.121887 498.916229,407.620026   C475.181641,380.788757 450.771851,354.545746 428.123901,326.766235   C405.333069,298.811432 383.996368,269.913513 369.056976,236.768295   C359.128296,214.740082 353.545410,191.814590 353.758514,167.619995   C354.461029,87.863045 412.972260,28.243624 482.069153,18.216110   C537.254028,10.207531 583.661255,28.932451 620.531738,71.485291  M631.020386,164.554596   C629.807434,134.898499 619.950745,108.423347 600.581360,85.968575   C569.582520,50.031834 529.992065,35.753132 483.323578,42.838245   C449.800171,47.927696 422.634430,65.434273 402.884949,92.530304   C378.835693,125.525604 372.174683,162.713348 382.331757,202.539062   C387.878143,224.286255 399.157227,243.417664 410.265015,262.588837   C414.605591,270.080353 419.421295,277.295258 423.931458,284.690552   C425.452332,287.184235 427.594666,287.852600 430.296722,287.609222   C431.759399,287.477509 432.777313,286.929565 433.339081,285.481873   C434.813995,281.681427 433.369019,277.043274 429.717926,274.733002   C422.804413,270.358398 418.150238,264.199188 415.646088,256.527100   C413.892059,251.153168 412.818787,245.567841 412.792328,239.867020   C412.729706,226.369995 412.597900,212.870850 412.783386,199.376541   C412.842041,195.107437 412.044769,193.018585 407.094910,193.132294   C401.006561,193.272217 397.161255,189.819855 396.828003,184.396500   C396.368744,176.922913 396.040771,169.405869 396.315643,161.931671   C396.649750,152.847321 399.373657,150.336700 408.542175,149.753357   C411.489746,149.565842 412.755890,148.488251 412.714447,145.528152   C412.639771,140.197342 412.634857,134.861847 412.768463,129.532516   C413.282104,109.046860 425.580994,93.934845 445.065613,89.992714   C451.594330,88.671829 458.247284,87.962997 464.907684,87.939369   C490.735199,87.847710 516.563721,87.807999 542.390808,87.947388   C551.571167,87.996925 560.727112,89.127991 569.472900,91.964668   C583.109985,96.387787 592.252136,105.366760 595.526001,119.670502   C597.402710,127.869804 597.052185,136.231445 596.991272,144.542175   C596.963257,148.363617 598.155823,149.773849 602.139465,149.834259   C609.296570,149.942825 613.100220,154.015991 613.251404,161.211975   C613.394897,168.040680 613.401672,174.878220 613.229614,181.705856   C613.062500,188.336868 608.999512,192.926407 602.429016,193.119293   C597.815430,193.254715 596.894165,195.209579 596.961365,199.247253   C597.138794,209.908569 597.125122,220.576492 596.979370,231.238953   C596.742188,248.590530 595.544373,265.568573 577.901550,275.494843   C576.185181,276.460510 575.557983,284.785461 576.909607,286.338776   C578.738220,288.440247 581.248657,287.851227 583.435486,287.239105   C585.657227,286.617126 586.591980,284.380371 587.730408,282.562836   C596.842651,268.015167 605.652466,253.265930 613.324463,237.920639   C624.685974,215.195663 632.743225,191.525635 631.020386,164.554596  M581.725342,188.393311   C581.726318,176.238541 581.746094,164.083755 581.722412,151.929031   C581.703491,142.231552 576.129395,136.432709 566.272339,136.411957   C524.313538,136.323639 482.354370,136.346100 440.395416,136.394394   C432.671417,136.403275 427.266968,141.287598 427.125122,149.020874   C426.853394,163.832245 426.879852,178.656418 427.172150,193.467590   C427.310455,200.477524 432.707428,205.454987 439.691071,205.982254   C441.514191,206.119904 443.351868,206.107117 445.182465,206.096207   C484.971771,205.859314 524.760437,205.259644 564.546936,206.534836   C576.602539,206.921219 581.674805,201.604660 581.725342,188.393311  M498.500061,119.985992   C510.154022,119.946861 521.809143,119.992325 533.461426,119.829575   C538.571411,119.758209 540.880737,117.256592 540.876038,112.465134   C540.871765,108.097656 538.378967,105.349480 533.692383,105.324112   C515.712463,105.226791 497.731018,105.235573 479.751343,105.365921   C474.789673,105.401886 471.792816,108.374969 471.776062,112.544693   C471.758514,116.906731 474.922516,119.871239 480.019501,119.970016   C485.844299,120.082893 491.673126,119.989998 498.500061,119.985992  M478.505188,286.970612   C499.495239,287.009888 520.485779,286.985535 541.474792,287.154907   C544.741028,287.181244 546.904968,287.109314 546.964478,282.916626   C547.022400,278.838013 546.067932,276.936218 541.469910,276.808533   C517.154480,276.133179 492.849274,276.227875 468.537689,276.887787   C464.925232,276.985809 463.078705,277.896271 463.072754,282.011627   C463.066772,286.132904 464.822815,287.259644 468.514465,287.031006   C471.502197,286.845978 474.509430,286.974945 478.505188,286.970612  M770.352356,245.181671   C765.000244,243.875290 760.226685,245.083939 757.175232,249.672531   C754.008484,254.434555 753.993591,259.836670 757.059998,264.733215   C759.933228,269.321320 764.631226,270.418610 769.720825,269.769226   C775.548828,269.025696 779.946777,264.050385 780.544983,257.817932   C781.044312,252.616608 777.540588,247.992249 770.352356,245.181671  M436.859039,243.534973   C440.315125,251.371613 447.979431,254.394257 454.209503,250.377609   C458.839539,247.392532 460.554565,241.613754 458.387665,236.299301   C456.513763,231.703476 450.881470,228.668335 446.175323,229.718231   C439.755005,231.150543 436.233032,235.972656 436.859039,243.534973  M554.801880,233.315811   C554.064270,234.411453 553.196106,235.442078 552.612488,236.614410   C550.532532,240.792953 551.361694,244.694199 554.144043,248.209106   C557.491394,252.437714 562.118896,252.724762 566.828003,251.584839   C571.002075,250.574432 572.926758,247.189758 573.693054,243.242371   C574.626770,238.432907 573.309631,234.165543 569.094666,231.508942   C564.358276,228.523666 559.621826,229.252747 554.801880,233.315811  M692.315247,369.057922   C694.695862,372.789673 697.539368,375.741333 702.492310,374.059326   C707.232178,372.449707 709.867920,367.407288 708.539734,362.898499   C707.272644,358.597260 702.275452,356.020020 697.690796,357.303375   C693.222412,358.554169 690.907104,363.081512 692.315247,369.057922  M620.205994,372.368958   C623.847839,375.240387 627.553040,375.490173 631.001282,372.213409   C633.613403,369.731232 635.537048,366.884552 633.903259,362.917358   C632.405823,359.281158 629.700073,357.424591 625.898560,357.127167   C622.408569,356.854126 619.703125,358.372314 618.003967,361.370911   C615.810913,365.241150 616.868774,368.728516 620.205994,372.368958  z"/>
<path fill="#5a9ea0" opacity="1.000000" stroke="none" d=" M440.469360,473.521667   C451.591003,453.657928 445.787628,458.255524 467.622437,457.602692   C474.155975,457.407349 474.202484,457.750122 474.207520,464.366760   C474.227753,491.017731 474.236328,517.668701 474.220398,544.319641   C474.215851,551.975220 474.145325,552.006409 466.307770,552.021118   C463.476227,552.026489 460.644135,551.958679 457.813171,551.994019   C454.061676,552.040771 452.577271,550.388062 452.617493,546.506470   C452.771088,531.683594 452.689941,516.857849 452.622162,502.033478   C452.611969,499.800049 453.162720,497.385101 451.017578,494.867004   C447.270935,501.211090 443.697784,507.310822 440.075012,513.380981   C436.832947,518.813293 433.047974,523.985046 430.386963,529.684692   C427.056854,536.817505 416.693909,537.010742 412.942627,529.689575   C406.839142,517.777710 399.223236,506.640839 391.335999,495.393280   C391.335999,512.137817 391.184235,528.884644 391.431335,545.625549   C391.502594,550.451538 389.804688,552.139221 385.120239,552.095276   C366.543549,551.921143 369.904114,554.118958 369.763123,537.431641   C369.556244,512.947754 369.795441,488.460144 369.609222,463.975922   C369.573425,459.267548 370.968903,457.575439 375.838654,457.586700   C393.024414,457.626526 392.990570,457.490234 401.436371,472.631775   C407.032990,482.665314 412.730255,492.642883 418.421967,502.622986   C419.225555,504.031952 419.772614,505.678802 421.913269,506.888550   C428.053741,495.845428 434.170990,484.844147 440.469360,473.521667  z"/>
<path fill="#5a9ea0" opacity="1.000000" stroke="none" d=" M644.775879,593.282227   C653.560181,606.199524 662.139893,618.819031 670.719604,631.438538   C671.094604,631.324341 671.469543,631.210205 671.844543,631.096008   C671.844543,622.684692 671.826111,614.273376 671.849792,605.862122   C671.872803,597.702576 671.992249,589.542969 671.963623,581.383728   C671.949707,577.420532 673.645752,575.558044 677.707458,575.745667   C681.197266,575.906860 684.702942,575.889893 688.195862,575.776062   C691.986267,575.652588 693.745667,577.490234 693.802612,581.136047   C693.893555,586.962463 694.045105,592.790833 693.980408,598.616211   C693.736389,620.589783 694.346863,642.566833 693.498840,664.542786   C693.319275,669.196228 691.872986,670.554382 687.401978,670.425781   C668.486816,669.881592 674.412415,673.394226 663.708984,657.796997   C654.854126,644.893494 646.181458,631.865173 637.408325,618.905457   C636.781067,617.978821 635.992126,617.161621 635.157227,616.146240   C633.755676,618.046692 634.304016,619.928406 634.295410,621.663147   C634.224487,635.983887 634.118652,650.306274 634.283020,664.625183   C634.331787,668.872498 633.040405,670.793335 628.574280,670.465393   C625.101196,670.210388 621.550049,670.204590 618.101562,670.634033   C613.864380,671.161743 612.536682,669.661987 612.570129,665.463867   C612.729187,645.482239 612.642822,625.498718 612.649048,605.515869   C612.651550,597.522705 612.867004,589.522949 612.599976,581.539062   C612.450623,577.074219 614.382812,576.172974 618.453125,575.634644   C628.787109,574.267944 636.277039,577.444458 640.747986,587.137939   C641.712769,589.229614 643.281067,591.042908 644.775879,593.282227  z"/>
<path fill="#5a9ea0" opacity="1.000000" stroke="none" d=" M244.404785,575.963257   C258.671204,576.053650 272.537476,574.705811 286.280151,576.781799   C299.261902,578.742981 307.157745,586.434570 309.011536,598.590759   C310.349243,607.362549 306.172333,614.361145 300.824921,621.357361   C308.391571,626.238098 312.268097,633.032715 312.398743,642.136414   C312.565399,653.747070 306.638550,661.252258 297.005646,666.394470   C291.942993,669.097046 286.320374,670.186096 280.610748,670.263245   C269.446503,670.414185 258.276733,670.216614 247.114624,670.435791   C243.118240,670.514282 241.836670,668.882446 241.842484,665.142578   C241.886246,636.977234 241.837952,608.811707 241.832916,580.646240   C241.832596,578.816406 241.726349,576.881836 244.404785,575.963257  M263.923065,632.503052   C262.643097,638.244141 263.569550,644.057251 263.371948,649.833679   C263.321320,651.313232 263.960754,652.601929 265.578979,652.609497   C271.688721,652.638062 277.934692,653.790955 283.844666,651.643066   C288.447327,649.970215 291.078644,646.497925 290.778687,641.292053   C290.483429,636.167969 287.257385,633.532471 282.737457,632.426270   C276.740143,630.958374 270.628662,630.736816 263.923065,632.503052  M284.205811,610.878479   C287.507599,608.111145 288.407166,604.592529 287.218475,600.562927   C286.023651,596.512390 282.764557,595.025024 278.968018,594.330688   C275.038086,593.612000 271.092529,593.199402 267.080444,593.328430   C264.659332,593.406311 263.322693,594.312073 263.337982,596.865967   C263.363892,601.187134 263.342651,605.508545 263.346161,609.829895   C263.347809,611.850891 264.393280,612.996521 266.385193,612.976318   C272.152496,612.917847 278.045715,614.051147 284.205811,610.878479  z"/>
<path fill="#5a9ea0" opacity="1.000000" stroke="none" d=" M654.334839,514.321655   C651.184143,515.787292 651.109314,517.522522 652.742432,520.039307   C657.820129,527.864868 662.779907,535.768738 667.663818,543.717041   C668.912048,545.748535 670.990479,547.578369 670.154480,550.968506   C663.365356,551.612061 656.480957,552.355042 649.529785,551.695862   C647.250061,551.479736 646.336487,549.455994 645.305542,547.764648   C640.195862,539.380920 635.161377,530.951172 630.013550,522.591064   C628.158264,519.578064 620.277222,517.850464 617.527466,519.680969   C616.001709,520.696655 616.264099,522.301208 616.252258,523.752686   C616.193787,530.918213 616.014648,538.089905 616.239563,545.248047   C616.397217,550.265869 614.173584,552.218140 609.385193,552.051208   C605.890137,551.929382 602.386597,552.013611 598.887512,552.057495   C596.000610,552.093689 594.676392,550.822632 594.679077,547.837646   C594.705017,519.174255 594.669067,490.510895 594.651978,461.847504   C594.650696,459.659210 595.089233,457.792694 597.830444,457.730957   C613.467773,457.378693 629.248718,456.144043 644.680054,458.701721   C669.753479,462.857574 672.903931,485.661407 666.653748,501.865723   C664.443481,507.596008 659.725830,511.106964 654.334839,514.321655  M616.226074,485.603943   C616.229675,488.937195 616.350464,492.275665 616.203430,495.602264   C616.060181,498.844391 617.507141,500.140442 620.648193,500.066559   C626.145325,499.937225 631.651855,500.067017 637.142029,499.816986   C643.479187,499.528412 647.312988,495.576935 647.648926,489.393311   C647.986023,483.187378 644.179260,478.337891 638.045532,477.337585   C633.603821,476.613190 629.132690,476.275177 624.611694,476.361816   C616.243286,476.522156 616.241821,476.446777 616.226074,485.603943  z"/>
<path fill="#5a9ea0" opacity="1.000000" stroke="none" d=" M745.303101,573.765442   C761.243774,572.800720 774.799377,576.692871 784.949829,589.246399   C788.766907,593.967285 788.674072,594.947571 783.782104,598.202332   C783.227661,598.571167 782.658630,598.918701 782.089844,599.265503   C778.967346,601.169556 776.038330,604.046387 772.668762,604.721191   C768.599731,605.536072 767.223938,600.545959 764.415039,598.399902   C753.919373,590.380859 741.490967,592.040344 733.873474,602.780273   C725.398865,614.728760 725.770935,633.488342 734.699646,644.427795   C741.051208,652.209778 753.880859,654.405579 762.421936,649.182434   C764.303589,648.031677 765.846802,646.555237 767.013672,644.676941   C768.284546,642.631348 769.312073,640.387390 768.376221,638.069946   C767.307739,635.424011 764.648071,636.458008 762.629333,636.362549   C758.971924,636.189636 755.298584,636.175293 751.638367,636.293091   C748.414185,636.396851 747.072632,634.846558 747.057983,631.806335   C747.056396,631.473328 747.026733,631.140381 747.028992,630.807495   C747.135254,615.057190 745.962524,617.954651 759.510193,617.722290   C767.836731,617.579468 776.171387,617.842834 784.495178,617.635315   C788.417603,617.537537 789.990051,619.243103 790.005066,622.895996   C790.035889,630.390686 790.637146,637.940125 789.936707,645.366394   C789.030457,654.973450 782.357849,661.212402 774.684631,665.852783   C754.353027,678.148193 727.887024,672.010803 713.681885,651.710754   C698.889954,630.571960 701.551514,592.466797 731.097778,578.114990   C735.474548,575.989075 739.991089,574.376953 745.303101,573.765442  z"/>
<path fill="#5a9ea0" opacity="1.000000" stroke="none" d=" M576.704102,537.416138   C577.818298,540.613525 578.670898,543.493103 579.763855,546.278320   C581.372559,550.377686 579.580383,551.616638 575.714294,551.910950   C560.688293,553.055176 560.542480,553.169250 555.260864,538.817627   C553.755005,534.725708 551.722778,533.127930 547.301086,533.299194   C538.484802,533.640747 529.643616,533.532043 520.818054,533.349854   C516.932251,533.269653 514.370361,534.495667 513.408386,538.401733   C513.329224,538.723328 513.192383,539.032043 513.068726,539.341248   C507.321411,553.705200 511.217957,551.980957 493.357056,552.001648   C487.672516,552.008240 486.875885,550.621948 488.751129,545.298218   C495.885071,525.045227 503.032776,504.797119 510.177734,484.548065   C512.614685,477.641602 515.217285,470.788208 517.441650,463.814087   C518.844971,459.414429 521.147339,457.389496 526.068481,457.437714   C531.879150,457.494659 537.693787,457.347168 543.518921,457.424835   C548.074036,457.485626 550.067688,459.409576 551.394348,463.357849   C558.284546,483.862915 565.299011,504.326263 572.281860,524.800110   C573.678284,528.894470 575.125916,532.971252 576.704102,537.416138  M545.448975,513.476196   C543.613037,502.183197 538.676758,491.965118 534.517029,481.323334   C529.521301,491.756866 525.943481,502.426544 522.565125,513.668152   C530.505798,514.928894 537.720642,515.005798 545.448975,513.476196  z"/>
<path fill="#5a9ea0" opacity="1.000000" stroke="none" d=" M345.250488,614.999146   C345.553986,622.466614 344.888306,629.441772 346.131134,636.411438   C348.175690,647.876953 353.861725,652.562988 365.879669,652.070435   C375.580109,651.672852 382.335052,644.981995 382.582977,634.478516   C382.991577,617.168640 382.894745,599.846558 382.978058,582.529419   C383.009705,575.949829 383.105774,575.794983 389.638794,575.777039   C393.302094,575.766968 396.965729,575.849548 400.628876,575.828247   C403.542023,575.811340 404.954742,577.283508 404.943817,580.105042   C404.865753,600.247375 405.936096,620.436951 404.042389,640.513611   C402.510406,656.755493 389.082764,669.542847 372.767548,671.447327   C362.052368,672.698059 351.521515,672.501404 341.666107,667.085999   C329.803436,660.567749 324.405090,649.847046 323.899384,637.136475   C323.145203,618.181274 323.698700,599.175476 323.585175,580.191833   C323.565796,576.953186 324.844360,575.667175 328.010193,575.764282   C331.836853,575.881653 335.673370,575.910645 339.498627,575.776733   C343.598633,575.633240 345.146271,577.596497 345.133301,581.527039   C345.096985,592.517517 345.200806,603.508545 345.250488,614.999146  z"/>
<path fill="#5a9ea0" opacity="1.000000" stroke="none" d=" M455.256195,671.511597   C438.984528,673.113220 425.310028,668.463196 413.644806,657.566345   C410.487579,654.617065 410.515900,652.623596 414.025055,650.196838   C417.032196,648.117188 419.872864,645.774475 422.644653,643.382874   C425.745392,640.707458 428.102356,640.613647 430.901093,644.125549   C436.173950,650.742004 443.480164,653.190796 451.768585,652.613342   C456.296967,652.297852 460.371368,650.888489 461.669067,645.783386   C462.962799,640.693909 461.231079,637.380493 455.823975,634.451843   C450.506714,631.571777 444.564545,630.400757 438.936035,628.370056   C437.370483,627.805237 435.776428,627.316528 434.224091,626.718567   C420.106110,621.280701 415.510681,615.061218 415.695282,601.681702   C415.850983,590.396240 423.755524,579.984375 435.524414,576.139404   C452.971558,570.439453 467.931427,575.167847 480.979828,587.459290   C483.814484,590.129456 483.349182,592.246948 480.300293,594.235352   C479.045135,595.053955 477.862396,595.985596 476.592896,596.779785   C473.911987,598.456909 471.378906,600.694702 468.447449,601.564880   C464.772797,602.655762 463.525055,598.315125 460.907471,596.781494   C455.482513,593.602905 449.904327,592.033936 443.757660,594.141663   C440.326355,595.318237 438.018951,597.795410 437.792023,601.436340   C437.584625,604.763794 439.780090,607.078430 442.598511,608.447754   C445.276154,609.748596 448.101318,610.930359 450.993042,611.571106   C459.579071,613.473755 467.206787,617.467529 474.716095,621.801941   C479.144592,624.358093 481.907623,628.178467 483.209259,633.054321   C488.214020,651.802063 476.389526,668.280273 455.256195,671.511597  z"/>
<path fill="#5a9ea0" opacity="1.000000" stroke="none" d=" M494.777893,591.067749   C502.254181,577.273926 514.448425,573.233643 528.632263,573.965759   C539.653992,574.534729 549.283752,578.733459 556.745605,587.290405   C559.008850,589.885803 559.086121,591.852234 556.191101,593.857971   C554.689331,594.898438 553.276794,596.075195 551.875427,597.251709   C547.575256,600.861694 543.703308,602.499512 538.646179,597.673767   C534.768982,593.974060 529.336182,592.657532 523.721069,593.283081   C518.602173,593.853455 514.847473,596.792603 514.396790,600.846436   C513.843140,605.827026 517.156189,608.022095 521.042969,609.610535   C529.495483,613.064880 538.593445,614.519897 546.835144,618.868103   C555.596313,623.490234 560.762268,629.814819 561.339111,639.830017   C562.007629,651.436401 557.290466,660.273315 547.610596,666.315674   C532.928772,675.480164 511.291565,673.330444 496.050934,661.519043   C486.769440,654.325928 486.769897,654.326416 495.824646,647.183838   C496.478577,646.668091 497.103424,646.114197 497.770660,645.616760   C500.026611,643.935120 502.107849,641.343872 504.607666,640.837646   C507.647888,640.221924 507.917847,644.429016 509.916046,646.073975   C516.158142,651.212402 523.137146,653.712341 531.230896,652.253723   C535.788635,651.432373 538.815979,648.855225 539.279724,644.014709   C539.702759,639.600098 537.328125,636.797607 533.574768,634.973267   C527.251587,631.899841 520.465271,630.143799 513.764709,628.171936   C501.977875,624.703308 493.475311,618.309937 492.202271,605.022522   C491.741455,600.212891 492.878510,595.785583 494.777893,591.067749  z"/>
<path fill="#5a9ea0" opacity="1.000000" stroke="none" d=" M326.989471,533.223816   C333.923523,527.972107 333.548859,520.476685 326.404419,516.475647   C320.970886,513.432739 314.767853,512.511963 308.964478,510.479797   C305.984192,509.436188 302.950317,508.515228 300.046631,507.288147   C278.727600,498.279083 282.450928,471.567841 296.051697,462.209076   C310.186066,452.483124 335.529144,451.876312 350.805542,470.153931   C352.242493,471.873169 352.443970,473.338562 350.388397,474.720459   C348.730103,475.835175 347.147797,477.062195 345.506836,478.203491   C342.914490,480.006409 340.520447,482.553162 337.641327,483.368652   C334.050964,484.385559 332.914337,479.868896 330.245636,478.340210   C324.353577,474.965240 318.441742,472.804657 311.828064,476.152252   C305.838379,479.183990 305.444214,486.207855 311.160858,489.729797   C315.461670,492.379486 320.407990,493.440979 325.216492,494.771179   C331.014862,496.375244 336.430511,498.752960 341.834686,501.458832   C359.450104,510.278931 357.201080,534.563293 344.803894,544.618530   C331.389587,555.498779 316.703705,555.317383 301.425110,550.106689   C294.712341,547.817261 289.175232,543.486084 284.004425,538.652710   C281.337982,536.160339 281.558167,534.309875 284.352020,532.255554   C287.303894,530.085022 290.264465,527.902649 293.020325,525.495422   C296.172516,522.741943 298.645996,523.067688 301.595459,526.016846   C308.533386,532.953979 316.781647,536.068176 326.989471,533.223816  z"/>
<path fill="#5a9ea0" opacity="1.000000" stroke="none" d=" M705.609619,508.006714   C705.430725,499.015045 705.166626,490.522369 705.116882,482.028473   C705.097046,478.651733 703.833801,477.224854 700.366821,477.306488   C694.038147,477.455475 687.701111,477.226196 681.370911,477.340363   C678.182434,477.397858 677.010071,476.087402 676.798157,472.937439   C675.794128,458.012268 675.737793,458.232483 690.519714,457.554749   C709.012939,456.706848 727.503479,457.110474 745.995667,457.119537   C754.071777,457.123505 754.236389,457.342896 754.149353,465.169922   C753.987732,479.712250 755.174622,477.065186 741.781372,477.358124   C739.782410,477.401825 737.781860,477.368927 735.782166,477.384399   C727.047668,477.451904 726.966309,477.453430 726.944153,486.410187   C726.902039,503.399048 726.971191,520.388123 726.974487,537.377136   C726.975098,540.542297 726.880127,543.707458 726.835205,546.872681   C726.785706,550.358093 724.997314,551.770752 721.542236,552.057434   C705.696350,553.372437 705.685059,553.437256 705.628174,538.002075   C705.591919,528.169922 705.614136,518.337524 705.609619,508.006714  z"/>
<path fill="#5a9ea0" opacity="1.000000" stroke="none" d=" M579.311340,575.826172   C582.437317,575.811096 585.114685,575.973206 587.763245,575.766541   C592.635193,575.386353 594.217712,577.794312 594.205750,582.321350   C594.132568,609.964478 594.121155,637.608093 594.209656,665.251160   C594.222168,669.156067 592.723694,670.641052 588.871399,670.422668   C585.053772,670.206116 581.209045,670.261414 577.385315,670.418640   C574.019409,670.557007 572.629883,669.306091 572.641846,665.798401   C572.736572,637.988708 572.737671,610.178589 572.678528,582.368713   C572.669312,578.032349 574.408142,575.763062 579.311340,575.826172  z"/>
</svg>